<svg xmlns="http://www.w3.org/2000/svg" viewBox="0 0 900 360" role="img" aria-labelledby="title desc">
  <title id="title">Karate Skillz Dojo ninja sweep logo</title>
  <desc id="desc">Ninja star and a martial artist silhouette performing a sweeping kick</desc>
  <defs>
    <linearGradient id="bg" x1="0" y1="0" x2="1" y2="1">
      <stop offset="0%" stop-color="#140f17"/>
      <stop offset="100%" stop-color="#0b0a10"/>
    </linearGradient>
    <linearGradient id="red" x1="0" y1="0" x2="1" y2="0">
      <stop offset="0%" stop-color="#9d1232"/>
      <stop offset="100%" stop-color="#dc1b45"/>
    </linearGradient>
  </defs>
  <rect width="900" height="360" fill="url(#bg)" rx="24"/>

  <g transform="translate(160 185)">
    <path d="M0-120l16 46 48 16-48 16-16 46-16-46-48-16 48-16z" fill="#dc1b45"/>
    <path d="M0-88l9 25 25 9-25 9-9 25-9-25-25-9 25-9z" fill="#f4f4f4"/>
  </g>

  <g transform="translate(280 238)">
    <circle cx="0" cy="-86" r="21" fill="#f2f2f2"/>
    <path d="M0-64l20 38 46 23-17 16-42-17-15 43h-24l17-49-34-17 11-19 31 13-11-23z" fill="#f2f2f2"/>
    <path d="M8 28h120l42 17-42 17H-16l35-16z" fill="url(#red)"/>
  </g>

  <text x="430" y="145" font-family="Impact, Haettenschweiler, 'Arial Black', sans-serif" font-size="86" letter-spacing="3" fill="url(#red)">KARATE</text>
  <text x="432" y="230" font-family="Impact, Haettenschweiler, 'Arial Black', sans-serif" font-size="78" letter-spacing="3" fill="#f4f4f4">SKILLZ DOJO</text>
  <path d="M430 248h380" stroke="#dc1b45" stroke-width="8" stroke-linecap="round"/>
  <path d="M430 260h250" stroke="#ffffff" stroke-width="3" stroke-linecap="round" opacity=".55"/>
</svg>
